<?xml version='1.0' encoding='utf-8'?>
<svg xmlns="http://www.w3.org/2000/svg" width="2e3px" height="1877px" clip-rule="evenodd" fill-rule="evenodd" image-rendering="optimizeQuality" shape-rendering="geometricPrecision" text-rendering="geometricPrecision" version="1.1" viewBox="0 0 1145 1075"> <defs> <style type="text/css">.str5 {stroke:black;stroke-width:1.51072;stroke-linecap:round;stroke-linejoin:round} .str4 {stroke:#303030;stroke-width:1.51072;stroke-linecap:round;stroke-linejoin:round} .str0 {stroke:#543C23;stroke-width:1.51072;stroke-linecap:round;stroke-linejoin:round} .str7 {stroke:#886C57;stroke-width:1.51072;stroke-linecap:round;stroke-linejoin:round} .str1 {stroke:#9E908E;stroke-width:1.51072;stroke-linecap:round;stroke-linejoin:round} .str2 {stroke:#E6E6E6;stroke-width:1.51072;stroke-linecap:round;stroke-linejoin:round} .str3 {stroke:#F07B27;stroke-width:1.51072;stroke-linecap:round;stroke-linejoin:round} .str6 {stroke:white;stroke-width:1.51072;stroke-linecap:round;stroke-linejoin:round} .fil6 {fill:black} .fil5 {fill:#303030} .fil1 {fill:#543C23} .fil7 {fill:#886C57} .fil2 {fill:#9E908E} .fil3 {fill:#E6E6E6} .fil4 {fill:#F07B27} .fil0 {fill:white}</style> </defs> <rect class="fil0" width="1145" height="1075"/> <path class="fil1 str0" d="m515 724c0-6-27-12-27-6-8 50-2 160-9 163-8 4-36-1-54-1-13 0-53 2-59 14-2 6 30 2 46 2 15 0 28-1 42-1-17 4-35 5-52 9-13 4-47 10-49 29-1 5 45-11 58-14l54-12c-15 3-30 11-45 19-14 8-36 14-38 36 0 7 50-25 59-28 26-9 42-24 51-24 10-1 26-4 41-2 20 2 41 5 40 1-5-13-18-15-37-17-18-1-38-1-39-7-1-32 17-109 18-161z"/> <path class="fil2 str1" d="m296 107c79 1 159 85 223 157 49 53 87 76 108 96 119 117 154 220 228 264 80 48 172 81 242 144 14 13-13 30-31 26-136-33-165-31-233-50-20-5-71-22-86-4-69 81-289 47-417-51-109-82-103-200-122-297-17-88-35-68-50-156-13-70 36-130 138-129z"/> <path class="fil3 str2" d="m935 766c-38-7-74-12-108-22-19-5-70-18-81-3-15 20-49 36-87 42-36 6-84 4-129-5-68-13-132-42-177-71-46-30-86-71-101-113 21 2 89 40 209 77 108 33 192 11 268 12 74 2 156 60 206 83z"/> <path class="fil4 str3" d="m255 601c-6-9-18-41-26-80-9-43-14-95-21-129-13-64-25-70-37-103-5-12-9-29-14-53-3-12-1-39 1-42 0-8 38-37 83-49 71-19 158 82 120 151-12 23-18 74-16 122 1 34 11 67 20 98 13 48-3 99-26 124-35 38-67-10-84-39z"/> <path class="fil1 str0" d="m424 320c95-79 189 10 272 113 60 74 80 198 102 245 23 53 25 88 24 100-2 43-275-102-348-175-72-74-170-183-50-283z"/> <path class="fil5 str4" d="m43 278c-17-3 96-61 118-60 15 9 68 8 57 19-14 13-34 22-48 41-14 5-105 4-127 0z"/> <circle class="fil6 str5" cx="283" cy="188" r="29"/> <circle class="fil0 str6" cx="292" cy="174" r="12"/> <ellipse class="fil6 str5" transform="matrix(.84481 -.15546 .19638 1.7064 146.91 238.02)" rx="16" ry="3"/> <path class="fil1 str0" d="m582 770c0-6-26-12-27-6-7 49-3 158-10 161-8 4-32 9-51 9-13 0-53 10-58 24-2 6 29-5 45-6 14-1 30-4 44-6-18 5-24 8-42 13-12 3-57 18-57 36 0 3 41-15 54-20 16-5 36-9 52-16-15 8-26 15-41 22-14 8-27 17-26 32 1 4 18-8 41-20 17-8 35-20 47-29 8-6 11-11 20-15 11-4 25-7 38-6 19 2 30 4 28 1-5-10-16-14-35-15-18-2-39 2-39-4-1-32 17-103 17-155z"/> <path class="fil7 str7" d="m636 595c16 15 20 37 8 50s-34 11-51-4c-19-18 18 17 40-7 21-23-17-57 3-39z"/> <path class="fil7 str7" d="m747 659c18 17 23 43 9 58-13 14-39 12-58-5-2-2-8-8-6-7 18 12 39 13 51 0 25-27-19-66 4-46z"/> <path class="fil7 str7" d="m731 575c15 13 18 33 8 45-11 11-31 9-45-4-18-16 16 15 35-6 19-20-15-51 2-35z"/> </svg>